<svg version="1.1" xmlns="http://www.w3.org/2000/svg" viewBox="0 0 250 250"><desc>Created with Snap</desc><defs></defs><g transform="matrix(0.0352,0,0,0.0352,86.0585,136.4215)"><g transform="matrix(24.4722,0,0,24.4722,-2440.9868,-1559.9691)"><g><path d="M74.265,60.41c0.964,2.929,1.401,5.966,1.261,9.015c2.584-0.989,5.013-2.49,7.095-4.572c0.244-0.244,0.41-0.527,0.637-0.78   c0.018-0.341,0.105-0.659,0.105-1.004c0-2.924-0.646-5.691-1.764-8.203C79.522,57.139,77.045,59.022,74.265,60.41z" fill="#c7d3d4" style=""></path><path d="M54.863,81.605c2.509,1.112,5.276,1.759,8.2,1.759c0.349,0,0.664-0.085,1.004-0.103c0.253-0.227,0.541-0.393,0.781-0.637   c2.08-2.085,3.585-4.516,4.572-7.104c-3.049,0.14-6.086-0.292-9.01-1.257C59.022,77.049,57.137,79.528,54.863,81.605z" fill="#c7d3d4" style=""></path><path d="M40.588,74.265c-2.925,0.965-5.965,1.396-9.013,1.257c0.988,2.588,2.49,5.023,4.573,7.104   c0.242,0.244,0.528,0.41,0.779,0.637c0.339,0.018,0.661,0.103,1.003,0.103c2.926,0,5.691-0.646,8.202-1.759   C43.861,79.528,41.976,77.049,40.588,74.265z" fill="#c7d3d4" style=""></path><path d="M26.731,60.41c-2.781-1.388-5.26-3.271-7.337-5.545c-1.112,2.512-1.758,5.279-1.758,8.203c0,0.345,0.085,0.663,0.1,1.004   c0.229,0.253,0.395,0.536,0.639,0.78c2.082,2.082,4.515,3.583,7.098,4.572C25.333,66.376,25.767,63.339,26.731,60.41z" fill="#c7d3d4" style=""></path><path d="M26.731,40.592c-0.964-2.929-1.398-5.966-1.259-9.016c-2.583,0.989-5.014,2.491-7.098,4.572   c-0.244,0.245-0.41,0.528-0.639,0.781c-0.015,0.341-0.1,0.659-0.1,1.004c0,2.924,0.646,5.69,1.76,8.205   C21.471,43.863,23.95,41.979,26.731,40.592z" fill="#c7d3d4" style=""></path><path d="M46.132,19.397c-2.511-1.114-5.275-1.76-8.202-1.76c-0.342,0-0.664,0.084-1.003,0.102   c-0.251,0.228-0.537,0.393-0.779,0.638c-2.083,2.08-3.585,4.515-4.573,7.103c3.048-0.14,6.088,0.293,9.013,1.257   C41.976,23.952,43.861,21.475,46.132,19.397z" fill="#c7d3d4" style=""></path><path d="M60.41,26.736c2.924-0.964,5.961-1.396,9.01-1.257c-0.99-2.588-2.492-5.017-4.572-7.103   c-0.24-0.245-0.528-0.41-0.781-0.638c-0.34-0.018-0.659-0.102-1.004-0.102c-2.924,0-5.691,0.646-8.2,1.76   C57.137,21.475,59.022,23.952,60.41,26.736z" fill="#c7d3d4" style=""></path><path d="M82.621,36.148c-2.082-2.081-4.511-3.583-7.095-4.572c0.14,3.05-0.297,6.087-1.261,9.016   c2.78,1.388,5.257,3.271,7.334,5.547c1.117-2.515,1.764-5.281,1.764-8.205c0-0.345-0.088-0.663-0.105-1.004   C83.031,36.677,82.865,36.394,82.621,36.148z" fill="#c7d3d4" style=""></path><path d="M58.228,63.068c0-0.166-0.048-0.319-0.052-0.484c-1.061-0.21-2.09-0.498-3.099-0.834c-0.462,0.921-0.89,1.851-1.469,2.719   c0.113,0.122,0.19,0.267,0.309,0.384c1.143,1.14,2.404,2.069,3.718,2.881C57.993,66.228,58.228,64.683,58.228,63.068z" fill="#c7d3d4" style=""></path><path d="M43.362,67.733c1.313-0.812,2.574-1.741,3.715-2.881c0.12-0.117,0.199-0.262,0.312-0.384   c-0.581-0.868-1.008-1.798-1.471-2.719c-1.008,0.336-2.038,0.624-3.1,0.834c-0.002,0.165-0.048,0.318-0.048,0.484   C42.771,64.683,43.006,66.228,43.362,67.733z" fill="#c7d3d4" style=""></path><path d="M36.148,53.922c-1.139,1.14-2.068,2.4-2.88,3.717c1.503,0.355,3.051,0.59,4.663,0.59c0.166,0,0.318-0.044,0.484-0.048   c0.209-1.06,0.495-2.094,0.833-3.102c-0.918-0.463-1.848-0.886-2.716-1.471C36.411,53.726,36.269,53.805,36.148,53.922z" fill="#c7d3d4" style=""></path><path d="M38.415,42.821c-0.166-0.006-0.319-0.05-0.484-0.05c-1.612,0-3.159,0.236-4.663,0.591c0.812,1.318,1.739,2.578,2.88,3.717   c0.12,0.118,0.262,0.196,0.384,0.314c0.868-0.583,1.797-1.008,2.716-1.471C38.91,44.916,38.625,43.881,38.415,42.821z" fill="#c7d3d4" style=""></path><path d="M42.771,37.934c0,0.166,0.046,0.318,0.048,0.484c1.062,0.21,2.092,0.498,3.1,0.834c0.462-0.921,0.89-1.851,1.471-2.719   c-0.113-0.123-0.192-0.267-0.312-0.385c-1.141-1.139-2.402-2.066-3.715-2.879C43.006,34.774,42.771,36.319,42.771,37.934z" fill="#c7d3d4" style=""></path><path d="M57.635,33.27c-1.314,0.812-2.575,1.74-3.718,2.879c-0.118,0.118-0.195,0.262-0.309,0.385   c0.579,0.868,1.007,1.798,1.469,2.719c1.008-0.336,2.038-0.624,3.099-0.834c0.004-0.166,0.052-0.318,0.052-0.484   C58.228,36.319,57.993,34.774,57.635,33.27z" fill="#c7d3d4" style=""></path><path d="M63.063,42.771c-0.166,0-0.314,0.044-0.48,0.05c-0.209,1.06-0.498,2.095-0.838,3.102c0.921,0.463,1.851,0.888,2.719,1.471   c0.122-0.118,0.266-0.196,0.384-0.314c1.139-1.139,2.067-2.398,2.883-3.717C66.226,43.008,64.678,42.771,63.063,42.771z" fill="#c7d3d4" style=""></path><path d="M48.074,49.493c-0.035,0.676-0.035,1.339,0,2.012c0.452,0.502,0.921,0.969,1.42,1.423c0.671,0.034,1.335,0.034,2.007,0   c0.5-0.454,0.972-0.926,1.423-1.423c0.035-0.673,0.033-1.336,0-2.008c-0.451-0.502-0.921-0.969-1.42-1.423   c-0.673-0.035-1.34-0.035-2.012,0C48.995,48.528,48.524,48.995,48.074,49.493z" fill="#c7d3d4" style=""></path><path d="M64.464,53.608c-0.868,0.585-1.798,1.008-2.719,1.471c0.34,1.008,0.628,2.042,0.838,3.102   c0.166,0.004,0.314,0.048,0.48,0.048c1.615,0,3.163-0.234,4.668-0.59c-0.816-1.316-1.745-2.577-2.883-3.717   C64.73,53.805,64.586,53.726,64.464,53.608z" fill="#c7d3d4" style=""></path><path d="M72.271,55.926c2.583-1.327,4.827-3.173,6.615-5.425c-1.788-2.252-4.031-4.098-6.615-5.425   c-1.091,1.929-2.357,3.784-3.998,5.425C69.914,52.142,71.179,53.996,72.271,55.926z" fill="#c7d3d4" style=""></path><path d="M62.138,31.245c0.585,2.133,0.925,4.367,0.925,6.688c2.322,0,4.555,0.341,6.689,0.93c0.868-2.745,1.143-5.603,0.82-8.436   C67.74,30.104,64.879,30.375,62.138,31.245z" fill="#c7d3d4" style=""></path><path d="M50.498,22.11c-2.253,1.794-4.099,4.033-5.424,6.616c1.927,1.096,3.782,2.361,5.424,4.002   c1.644-1.641,3.498-2.906,5.426-4.002C54.597,26.144,52.752,23.904,50.498,22.11z" fill="#c7d3d4" style=""></path><path d="M37.931,37.934c0-2.321,0.34-4.556,0.927-6.688c-2.74-0.87-5.601-1.141-8.432-0.817c-0.323,2.833-0.05,5.69,0.817,8.436   C33.377,38.274,35.612,37.934,37.931,37.934z" fill="#c7d3d4" style=""></path><path d="M22.108,50.501c1.794,2.252,4.034,4.098,6.618,5.425c1.091-1.93,2.356-3.784,3.999-5.425   c-1.643-1.641-2.908-3.496-4.001-5.425C26.143,46.403,23.902,48.249,22.108,50.501z" fill="#c7d3d4" style=""></path><path d="M38.858,69.757c-0.587-2.133-0.927-4.367-0.927-6.688c-2.319,0-4.553-0.341-6.688-0.93   c-0.868,2.745-1.14,5.604-0.817,8.436C33.257,70.896,36.118,70.627,38.858,69.757z" fill="#c7d3d4" style=""></path><path d="M50.498,78.891c2.255-1.793,4.1-4.032,5.426-6.616c-1.929-1.095-3.782-2.36-5.426-4c-1.642,1.64-3.497,2.905-5.424,4   C46.401,74.858,48.245,77.098,50.498,78.891z" fill="#c7d3d4" style=""></path><path d="M63.063,63.068c0,2.321-0.34,4.556-0.925,6.688c2.741,0.87,5.602,1.139,8.435,0.817c0.323-2.832,0.048-5.695-0.82-8.436   C67.618,62.728,65.385,63.068,63.063,63.068z" fill="#c7d3d4" style=""></path><path d="M87.425,44.026c-0.571,2.304-1.457,4.476-2.614,6.475c1.157,1.999,2.043,4.177,2.614,6.475   C88.844,52.771,88.844,48.231,87.425,44.026z" fill="#c7d3d4" style=""></path><path d="M81.233,29.05c-1.981-4.041-5.244-7.301-9.286-9.282c1.249,2.063,2.147,4.268,2.745,6.541   C76.966,26.907,79.165,27.802,81.233,29.05z" fill="#c7d3d4" style=""></path><path d="M56.971,13.576c-4.204-1.418-8.742-1.418-12.947,0c2.3,0.571,4.473,1.453,6.473,2.614   C52.5,15.029,54.671,14.147,56.971,13.576z" fill="#c7d3d4" style=""></path><path d="M29.047,19.768c-4.042,1.981-7.301,5.241-9.284,9.282c2.066-1.248,4.268-2.143,6.541-2.741   C26.904,24.035,27.798,21.831,29.047,19.768z" fill="#c7d3d4" style=""></path><path d="M13.571,56.973c0.574-2.3,1.458-4.473,2.616-6.472c-1.159-1.999-2.04-4.171-2.616-6.472   C12.158,48.231,12.158,52.771,13.571,56.973z" fill="#c7d3d4" style=""></path><path d="M19.765,71.952c1.981,4.041,5.24,7.297,9.279,9.282c-1.248-2.068-2.141-4.269-2.741-6.542   C24.031,74.095,21.829,73.2,19.765,71.952z" fill="#c7d3d4" style=""></path><path d="M44.024,87.426c4.205,1.418,8.746,1.418,12.947,0c-2.3-0.572-4.472-1.453-6.474-2.614   C48.498,85.973,46.324,86.854,44.024,87.426z" fill="#c7d3d4" style=""></path><path d="M71.952,81.234c4.037-1.985,7.3-5.241,9.281-9.282c-2.068,1.248-4.267,2.143-6.541,2.74   C74.095,76.966,73.2,79.166,71.952,81.234z" fill="#c7d3d4" style=""></path></g><desc>Created with Snap</desc><defs></defs></g><g><g transform="matrix(1.024,0,0,-1.024,0,0)"><path d="M234 -87Q224 -87 208 -84Q193 -81 177 -73Q161 -64 151 -47Q141 -29 141 -1Q141 27 153 73Q165 120 189 195Q206 252 223 310Q240 368 251 428Q263 489 263 553Q263 593 258 622Q254 652 241 668Q228 684 202 684Q177 684 158 670Q140 656 127 633Q115 610 109 583Q104 556 104 530Q104 490 117 463Q71 463 51 485Q31 508 31 541Q31 571 46 602Q61 634 87 660Q113 687 147 703Q182 720 221 720Q287 720 320 670Q354 621 354 533Q354 462 335 385Q316 309 289 224Q277 186 263 145Q249 105 239 65Q229 25 229 -11Q229 -30 234 -39Q239 -47 254 -47Q280 -47 310 -24Q341 0 372 39Q404 78 432 126Q461 175 485 225Q510 276 526 321Q542 367 547 401Q583 401 601 381Q620 362 620 344Q620 332 610 305Q600 278 581 233Q565 196 548 154Q532 112 521 70Q510 29 510 -7Q510 -27 515 -37Q520 -47 536 -47Q564 -47 601 -19Q638 9 677 57Q716 105 753 165Q790 226 820 291Q850 356 868 419Q886 482 886 535Q886 588 868 611Q850 634 822 643Q839 671 857 683Q876 696 891 696Q914 696 937 667Q960 639 960 578Q960 524 939 454Q919 385 883 310Q848 236 802 165Q757 94 706 37Q656 -20 605 -54Q555 -87 510 -87Q486 -87 465 -78Q445 -68 433 -50Q421 -31 421 -5Q421 8 425 24Q429 41 434 59Q385 -6 334 -47Q283 -87 234 -87ZM983 -38Q962 -38 952 -5Q942 29 942 72Q942 119 958 184Q974 249 1000 321Q1026 394 1058 463Q1091 533 1125 589Q1160 646 1191 680Q1222 714 1245 714Q1265 714 1275 691Q1285 669 1285 646Q1285 618 1272 578Q1260 539 1238 494Q1216 449 1186 405Q1157 361 1123 325Q1089 289 1052 267Q1040 235 1032 203Q1024 172 1020 143Q1017 114 1017 88Q1017 81 1017 75Q1018 69 1019 63Q1026 81 1037 110Q1049 140 1065 173Q1082 206 1104 236Q1127 266 1156 284Q1185 303 1220 303Q1252 303 1270 288Q1289 274 1296 252Q1304 230 1304 207Q1304 176 1293 147Q1283 119 1272 93Q1262 68 1262 45Q1262 27 1270 19Q1278 11 1290 11Q1312 11 1341 33Q1371 55 1400 91Q1429 128 1449 172L1464 157Q1442 107 1411 66Q1381 25 1344 0Q1307 -24 1266 -24Q1229 -24 1210 -5Q1191 15 1191 44Q1191 65 1198 90Q1206 116 1213 142Q1220 169 1220 191Q1220 215 1209 225Q1199 235 1184 235Q1159 235 1139 215Q1119 195 1102 164Q1086 133 1072 98Q1058 64 1044 32Q1031 1 1016 -19Q1001 -38 983 -38ZM1071 323Q1097 346 1122 378Q1147 411 1168 447Q1190 483 1206 517Q1222 551 1231 578Q1241 605 1242 620Q1242 622 1241 623Q1241 624 1240 624Q1234 624 1214 598Q1194 573 1167 530Q1141 487 1115 433Q1089 379 1071 323ZM1502 -29Q1460 -29 1439 -4Q1418 22 1418 59Q1418 82 1426 117Q1434 152 1448 190Q1463 229 1482 263Q1501 297 1522 318Q1544 340 1565 340Q1577 340 1585 333Q1593 326 1593 313Q1593 300 1577 273Q1562 247 1541 213Q1520 179 1504 142Q1489 105 1489 71Q1489 38 1501 27Q1513 16 1536 16Q1570 16 1609 50Q1649 84 1692 169L1705 155Q1672 67 1617 19Q1563 -29 1502 -29ZM1621 425Q1603 425 1588 433Q1574 442 1574 461Q1574 485 1599 501Q1625 518 1652 518Q1669 518 1680 510Q1691 502 1691 483Q1691 462 1669 443Q1647 425 1621 425ZM1757 -46Q1713 -46 1687 -21Q1662 5 1662 57Q1662 99 1678 161Q1694 223 1718 289Q1710 291 1700 292Q1691 294 1683 298L1683 325Q1696 323 1706 322Q1717 321 1729 320Q1750 373 1774 423Q1799 473 1823 512Q1847 551 1869 574Q1891 597 1907 597Q1917 597 1925 590Q1933 583 1933 570Q1933 551 1912 513Q1892 476 1861 425Q1831 375 1803 317Q1811 317 1819 317Q1828 317 1836 317Q1876 317 1912 318Q1948 320 1985 324L1985 296Q1930 290 1884 287Q1839 284 1800 284Q1797 284 1793 284Q1790 284 1787 284Q1765 233 1749 180Q1734 127 1734 77Q1734 35 1747 17Q1760 0 1789 0Q1839 0 1891 46Q1943 92 1981 170L1995 160Q1970 102 1932 55Q1894 8 1849 -19Q1805 -46 1757 -46ZM2068 -44Q2005 -44 1972 -10Q1939 24 1939 75Q1939 120 1961 169Q1984 219 2022 262Q2060 306 2105 333Q2151 361 2196 361Q2221 361 2243 348Q2266 335 2266 296Q2266 258 2243 224Q2221 191 2184 165Q2148 139 2103 122Q2059 106 2015 102Q2014 96 2013 90Q2012 84 2012 74Q2012 66 2014 52Q2017 39 2024 25Q2032 12 2048 3Q2064 -6 2090 -6Q2132 -6 2174 18Q2217 42 2254 81Q2291 121 2316 169L2333 155Q2306 95 2264 50Q2222 6 2171 -19Q2121 -44 2068 -44ZM2024 133Q2050 138 2083 153Q2116 169 2146 192Q2176 216 2195 244Q2215 272 2215 301Q2215 312 2211 317Q2207 322 2197 322Q2173 322 2147 304Q2122 287 2097 259Q2073 232 2054 198Q2035 165 2024 133ZM2516 -87Q2459 -87 2408 -67Q2357 -47 2325 -7Q2294 34 2294 95Q2294 148 2316 178Q2339 208 2373 220Q2407 232 2439 232Q2409 200 2393 164Q2377 128 2377 95Q2377 60 2394 29Q2412 -1 2446 -20Q2481 -39 2533 -39Q2578 -39 2620 -23Q2663 -7 2690 23Q2718 54 2718 100Q2718 142 2695 172Q2672 202 2636 225Q2600 249 2559 270Q2519 292 2483 317Q2447 342 2424 374Q2401 407 2401 453Q2401 494 2421 540Q2442 587 2479 628Q2517 669 2570 694Q2624 720 2690 720Q2756 720 2782 691Q2808 662 2808 617Q2808 580 2795 538Q2783 496 2764 458Q2746 421 2729 394Q2709 399 2699 411Q2689 423 2689 442Q2689 463 2698 489Q2707 516 2718 544Q2729 573 2738 599Q2747 626 2747 647Q2747 666 2736 676Q2725 687 2692 687Q2645 687 2605 665Q2565 644 2535 611Q2506 578 2489 542Q2473 506 2473 476Q2473 440 2495 414Q2518 388 2554 367Q2590 346 2629 324Q2669 303 2705 277Q2741 251 2763 215Q2786 180 2786 128Q2786 76 2762 36Q2739 -4 2699 -31Q2660 -58 2612 -73Q2565 -87 2516 -87ZM2939 -46Q2895 -46 2869 -21Q2844 5 2844 57Q2844 99 2860 161Q2876 223 2900 289Q2892 291 2882 292Q2873 294 2865 298L2865 325Q2878 323 2888 322Q2899 321 2911 320Q2932 373 2956 423Q2981 473 3005 512Q3029 551 3051 574Q3073 597 3089 597Q3099 597 3107 590Q3115 583 3115 570Q3115 551 3094 513Q3074 476 3043 425Q3013 375 2985 317Q2993 317 3001 317Q3010 317 3018 317Q3058 317 3094 318Q3130 320 3167 324L3167 296Q3112 290 3066 287Q3021 284 2982 284Q2979 284 2975 284Q2972 284 2969 284Q2947 233 2931 180Q2916 127 2916 77Q2916 35 2929 17Q2942 0 2971 0Q3021 0 3073 46Q3125 92 3163 170L3177 160Q3152 102 3114 55Q3076 8 3031 -19Q2987 -46 2939 -46ZM3204 -32Q3160 -32 3143 -4Q3126 25 3126 61Q3126 93 3136 126Q3146 159 3163 188Q3180 217 3201 235Q3222 253 3244 253Q3250 253 3258 250Q3267 248 3271 244Q3260 232 3247 210Q3235 188 3224 162Q3214 137 3207 111Q3201 86 3201 65Q3201 42 3209 29Q3217 16 3235 16Q3255 16 3282 37Q3310 59 3335 90Q3304 117 3289 152Q3275 188 3275 233Q3275 258 3286 286Q3297 314 3320 333Q3343 352 3380 352Q3422 352 3438 328Q3455 305 3455 272Q3455 235 3435 188Q3416 142 3389 100Q3403 92 3420 92Q3435 92 3456 99Q3477 106 3496 122Q3516 139 3528 166L3544 154Q3523 105 3486 82Q3450 60 3416 60Q3403 60 3390 62Q3377 65 3366 70Q3332 28 3289 -2Q3247 -32 3204 -32ZM3358 120Q3383 155 3399 195Q3416 236 3416 270Q3416 295 3408 306Q3401 318 3388 318Q3368 318 3348 290Q3328 263 3328 221Q3328 197 3335 167Q3343 138 3358 120ZM3688 -26Q3652 -26 3630 -7Q3608 12 3608 44Q3608 72 3622 104Q3636 137 3650 168Q3665 200 3665 225Q3665 251 3648 266Q3632 282 3613 293Q3590 236 3563 184Q3537 132 3520 104L3507 129Q3521 155 3544 203Q3567 252 3588 313Q3578 323 3578 339Q3578 366 3594 388Q3611 410 3624 410Q3635 410 3639 397Q3644 385 3644 380Q3644 375 3639 361Q3634 348 3633 343Q3633 331 3649 320Q3666 310 3686 295Q3707 281 3723 260Q3739 240 3739 208Q3739 178 3726 148Q3713 118 3700 91Q3687 64 3687 45Q3687 29 3695 24Q3703 19 3714 19Q3738 19 3764 34Q3790 49 3814 72Q3839 95 3858 120Q3877 146 3887 167L3907 152Q3888 109 3853 68Q3818 27 3775 0Q3732 -26 3688 -26ZM3978 -44Q3915 -44 3882 -10Q3849 24 3849 75Q3849 120 3871 169Q3894 219 3932 262Q3970 306 4015 333Q4061 361 4106 361Q4131 361 4153 348Q4176 335 4176 296Q4176 258 4153 224Q4131 191 4094 165Q4058 139 4013 122Q3969 106 3925 102Q3924 96 3923 90Q3922 84 3922 74Q3922 66 3924 52Q3927 39 3934 25Q3942 12 3958 3Q3974 -6 4000 -6Q4042 -6 4084 18Q4127 42 4164 81Q4201 121 4226 169L4243 155Q4216 95 4174 50Q4132 6 4081 -19Q4031 -44 3978 -44ZM3934 133Q3960 138 3993 153Q4026 169 4056 192Q4086 216 4105 244Q4125 272 4125 301Q4125 312 4121 317Q4117 322 4107 322Q4083 322 4057 304Q4032 287 4007 259Q3983 232 3964 198Q3945 165 3934 133Z" fill="#603f83" style=""></path></g></g></g></svg>