<svg version="1.1" xmlns="http://www.w3.org/2000/svg" viewBox="0 0 250 250"><desc>Created with Snap</desc><defs></defs><g transform="matrix(0.0445,0,0,0.0445,13.6779,87.6118)"><g transform="matrix(26.6824,0,0,26.6824,1152.7814,96.3363)"><g><path d="M74.265,60.41c0.964,2.929,1.401,5.966,1.261,9.015c2.584-0.989,5.013-2.49,7.095-4.572c0.244-0.244,0.41-0.527,0.637-0.78   c0.018-0.341,0.105-0.659,0.105-1.004c0-2.924-0.646-5.691-1.764-8.203C79.522,57.139,77.045,59.022,74.265,60.41z" fill="#bb3344" style=""></path><path d="M54.863,81.605c2.509,1.112,5.276,1.759,8.2,1.759c0.349,0,0.664-0.085,1.004-0.103c0.253-0.227,0.541-0.393,0.781-0.637   c2.08-2.085,3.585-4.516,4.572-7.104c-3.049,0.14-6.086-0.292-9.01-1.257C59.022,77.049,57.137,79.528,54.863,81.605z" fill="#bb3344" style=""></path><path d="M40.588,74.265c-2.925,0.965-5.965,1.396-9.013,1.257c0.988,2.588,2.49,5.023,4.573,7.104   c0.242,0.244,0.528,0.41,0.779,0.637c0.339,0.018,0.661,0.103,1.003,0.103c2.926,0,5.691-0.646,8.202-1.759   C43.861,79.528,41.976,77.049,40.588,74.265z" fill="#bb3344" style=""></path><path d="M26.731,60.41c-2.781-1.388-5.26-3.271-7.337-5.545c-1.112,2.512-1.758,5.279-1.758,8.203c0,0.345,0.085,0.663,0.1,1.004   c0.229,0.253,0.395,0.536,0.639,0.78c2.082,2.082,4.515,3.583,7.098,4.572C25.333,66.376,25.767,63.339,26.731,60.41z" fill="#bb3344" style=""></path><path d="M26.731,40.592c-0.964-2.929-1.398-5.966-1.259-9.016c-2.583,0.989-5.014,2.491-7.098,4.572   c-0.244,0.245-0.41,0.528-0.639,0.781c-0.015,0.341-0.1,0.659-0.1,1.004c0,2.924,0.646,5.69,1.76,8.205   C21.471,43.863,23.95,41.979,26.731,40.592z" fill="#bb3344" style=""></path><path d="M46.132,19.397c-2.511-1.114-5.275-1.76-8.202-1.76c-0.342,0-0.664,0.084-1.003,0.102   c-0.251,0.228-0.537,0.393-0.779,0.638c-2.083,2.08-3.585,4.515-4.573,7.103c3.048-0.14,6.088,0.293,9.013,1.257   C41.976,23.952,43.861,21.475,46.132,19.397z" fill="#bb3344" style=""></path><path d="M60.41,26.736c2.924-0.964,5.961-1.396,9.01-1.257c-0.99-2.588-2.492-5.017-4.572-7.103   c-0.24-0.245-0.528-0.41-0.781-0.638c-0.34-0.018-0.659-0.102-1.004-0.102c-2.924,0-5.691,0.646-8.2,1.76   C57.137,21.475,59.022,23.952,60.41,26.736z" fill="#bb3344" style=""></path><path d="M82.621,36.148c-2.082-2.081-4.511-3.583-7.095-4.572c0.14,3.05-0.297,6.087-1.261,9.016   c2.78,1.388,5.257,3.271,7.334,5.547c1.117-2.515,1.764-5.281,1.764-8.205c0-0.345-0.088-0.663-0.105-1.004   C83.031,36.677,82.865,36.394,82.621,36.148z" fill="#bb3344" style=""></path><path d="M58.228,63.068c0-0.166-0.048-0.319-0.052-0.484c-1.061-0.21-2.09-0.498-3.099-0.834c-0.462,0.921-0.89,1.851-1.469,2.719   c0.113,0.122,0.19,0.267,0.309,0.384c1.143,1.14,2.404,2.069,3.718,2.881C57.993,66.228,58.228,64.683,58.228,63.068z" fill="#bb3344" style=""></path><path d="M43.362,67.733c1.313-0.812,2.574-1.741,3.715-2.881c0.12-0.117,0.199-0.262,0.312-0.384   c-0.581-0.868-1.008-1.798-1.471-2.719c-1.008,0.336-2.038,0.624-3.1,0.834c-0.002,0.165-0.048,0.318-0.048,0.484   C42.771,64.683,43.006,66.228,43.362,67.733z" fill="#bb3344" style=""></path><path d="M36.148,53.922c-1.139,1.14-2.068,2.4-2.88,3.717c1.503,0.355,3.051,0.59,4.663,0.59c0.166,0,0.318-0.044,0.484-0.048   c0.209-1.06,0.495-2.094,0.833-3.102c-0.918-0.463-1.848-0.886-2.716-1.471C36.411,53.726,36.269,53.805,36.148,53.922z" fill="#bb3344" style=""></path><path d="M38.415,42.821c-0.166-0.006-0.319-0.05-0.484-0.05c-1.612,0-3.159,0.236-4.663,0.591c0.812,1.318,1.739,2.578,2.88,3.717   c0.12,0.118,0.262,0.196,0.384,0.314c0.868-0.583,1.797-1.008,2.716-1.471C38.91,44.916,38.625,43.881,38.415,42.821z" fill="#bb3344" style=""></path><path d="M42.771,37.934c0,0.166,0.046,0.318,0.048,0.484c1.062,0.21,2.092,0.498,3.1,0.834c0.462-0.921,0.89-1.851,1.471-2.719   c-0.113-0.123-0.192-0.267-0.312-0.385c-1.141-1.139-2.402-2.066-3.715-2.879C43.006,34.774,42.771,36.319,42.771,37.934z" fill="#bb3344" style=""></path><path d="M57.635,33.27c-1.314,0.812-2.575,1.74-3.718,2.879c-0.118,0.118-0.195,0.262-0.309,0.385   c0.579,0.868,1.007,1.798,1.469,2.719c1.008-0.336,2.038-0.624,3.099-0.834c0.004-0.166,0.052-0.318,0.052-0.484   C58.228,36.319,57.993,34.774,57.635,33.27z" fill="#bb3344" style=""></path><path d="M63.063,42.771c-0.166,0-0.314,0.044-0.48,0.05c-0.209,1.06-0.498,2.095-0.838,3.102c0.921,0.463,1.851,0.888,2.719,1.471   c0.122-0.118,0.266-0.196,0.384-0.314c1.139-1.139,2.067-2.398,2.883-3.717C66.226,43.008,64.678,42.771,63.063,42.771z" fill="#bb3344" style=""></path><path d="M48.074,49.493c-0.035,0.676-0.035,1.339,0,2.012c0.452,0.502,0.921,0.969,1.42,1.423c0.671,0.034,1.335,0.034,2.007,0   c0.5-0.454,0.972-0.926,1.423-1.423c0.035-0.673,0.033-1.336,0-2.008c-0.451-0.502-0.921-0.969-1.42-1.423   c-0.673-0.035-1.34-0.035-2.012,0C48.995,48.528,48.524,48.995,48.074,49.493z" fill="#bb3344" style=""></path><path d="M64.464,53.608c-0.868,0.585-1.798,1.008-2.719,1.471c0.34,1.008,0.628,2.042,0.838,3.102   c0.166,0.004,0.314,0.048,0.48,0.048c1.615,0,3.163-0.234,4.668-0.59c-0.816-1.316-1.745-2.577-2.883-3.717   C64.73,53.805,64.586,53.726,64.464,53.608z" fill="#bb3344" style=""></path><path d="M72.271,55.926c2.583-1.327,4.827-3.173,6.615-5.425c-1.788-2.252-4.031-4.098-6.615-5.425   c-1.091,1.929-2.357,3.784-3.998,5.425C69.914,52.142,71.179,53.996,72.271,55.926z" fill="#bb3344" style=""></path><path d="M62.138,31.245c0.585,2.133,0.925,4.367,0.925,6.688c2.322,0,4.555,0.341,6.689,0.93c0.868-2.745,1.143-5.603,0.82-8.436   C67.74,30.104,64.879,30.375,62.138,31.245z" fill="#bb3344" style=""></path><path d="M50.498,22.11c-2.253,1.794-4.099,4.033-5.424,6.616c1.927,1.096,3.782,2.361,5.424,4.002   c1.644-1.641,3.498-2.906,5.426-4.002C54.597,26.144,52.752,23.904,50.498,22.11z" fill="#bb3344" style=""></path><path d="M37.931,37.934c0-2.321,0.34-4.556,0.927-6.688c-2.74-0.87-5.601-1.141-8.432-0.817c-0.323,2.833-0.05,5.69,0.817,8.436   C33.377,38.274,35.612,37.934,37.931,37.934z" fill="#bb3344" style=""></path><path d="M22.108,50.501c1.794,2.252,4.034,4.098,6.618,5.425c1.091-1.93,2.356-3.784,3.999-5.425   c-1.643-1.641-2.908-3.496-4.001-5.425C26.143,46.403,23.902,48.249,22.108,50.501z" fill="#bb3344" style=""></path><path d="M38.858,69.757c-0.587-2.133-0.927-4.367-0.927-6.688c-2.319,0-4.553-0.341-6.688-0.93   c-0.868,2.745-1.14,5.604-0.817,8.436C33.257,70.896,36.118,70.627,38.858,69.757z" fill="#bb3344" style=""></path><path d="M50.498,78.891c2.255-1.793,4.1-4.032,5.426-6.616c-1.929-1.095-3.782-2.36-5.426-4c-1.642,1.64-3.497,2.905-5.424,4   C46.401,74.858,48.245,77.098,50.498,78.891z" fill="#bb3344" style=""></path><path d="M63.063,63.068c0,2.321-0.34,4.556-0.925,6.688c2.741,0.87,5.602,1.139,8.435,0.817c0.323-2.832,0.048-5.695-0.82-8.436   C67.618,62.728,65.385,63.068,63.063,63.068z" fill="#bb3344" style=""></path><path d="M87.425,44.026c-0.571,2.304-1.457,4.476-2.614,6.475c1.157,1.999,2.043,4.177,2.614,6.475   C88.844,52.771,88.844,48.231,87.425,44.026z" fill="#bb3344" style=""></path><path d="M81.233,29.05c-1.981-4.041-5.244-7.301-9.286-9.282c1.249,2.063,2.147,4.268,2.745,6.541   C76.966,26.907,79.165,27.802,81.233,29.05z" fill="#bb3344" style=""></path><path d="M56.971,13.576c-4.204-1.418-8.742-1.418-12.947,0c2.3,0.571,4.473,1.453,6.473,2.614   C52.5,15.029,54.671,14.147,56.971,13.576z" fill="#bb3344" style=""></path><path d="M29.047,19.768c-4.042,1.981-7.301,5.241-9.284,9.282c2.066-1.248,4.268-2.143,6.541-2.741   C26.904,24.035,27.798,21.831,29.047,19.768z" fill="#bb3344" style=""></path><path d="M13.571,56.973c0.574-2.3,1.458-4.473,2.616-6.472c-1.159-1.999-2.04-4.171-2.616-6.472   C12.158,48.231,12.158,52.771,13.571,56.973z" fill="#bb3344" style=""></path><path d="M19.765,71.952c1.981,4.041,5.24,7.297,9.279,9.282c-1.248-2.068-2.141-4.269-2.741-6.542   C24.031,74.095,21.829,73.2,19.765,71.952z" fill="#bb3344" style=""></path><path d="M44.024,87.426c4.205,1.418,8.746,1.418,12.947,0c-2.3-0.572-4.472-1.453-6.474-2.614   C48.498,85.973,46.324,86.854,44.024,87.426z" fill="#bb3344" style=""></path><path d="M71.952,81.234c4.037-1.985,7.3-5.241,9.281-9.282c-2.068,1.248-4.267,2.143-6.541,2.74   C74.095,76.966,73.2,79.166,71.952,81.234z" fill="#bb3344" style=""></path></g><desc>Created with Snap</desc><defs></defs></g><g><g transform="matrix(0.5,0,0,-0.5,0,0)"><path d="M840 1161L1090 350Q1112 409 1136 477Q1160 545 1183 617Q1206 690 1227 764Q1249 839 1266 911L1169 1229Q1159 1262 1170 1286Q1182 1311 1207 1327Q1232 1344 1266 1352Q1301 1360 1339 1360Q1372 1360 1398 1356Q1424 1353 1443 1344Q1463 1335 1476 1318Q1489 1302 1497 1276L1784 352Q1807 414 1832 486Q1857 558 1881 634Q1905 710 1927 788Q1949 866 1965 941Q1982 1016 1991 1084Q2001 1153 2001 1210Q2001 1276 1992 1320Q1983 1364 1971 1393Q1960 1423 1951 1442Q1942 1461 1942 1477Q1942 1498 1953 1512Q1964 1527 1981 1537Q1998 1547 2018 1551Q2038 1556 2056 1556Q2096 1556 2124 1544Q2152 1532 2163 1503Q2168 1488 2171 1471Q2174 1455 2175 1439Q2177 1424 2177 1410Q2177 1397 2177 1389Q2177 1347 2163 1274Q2150 1201 2126 1109Q2103 1018 2073 913Q2043 808 2010 701Q1978 595 1945 493Q1912 391 1882 304Q1853 218 1830 152Q1808 87 1796 55Q1788 31 1774 17Q1761 3 1743 -5Q1726 -12 1705 -14Q1685 -16 1663 -16Q1623 -16 1597 -8Q1572 0 1557 12Q1542 24 1535 38Q1528 52 1524 63L1325 717Q1292 608 1258 502Q1224 397 1193 308Q1163 219 1139 152Q1115 86 1102 55Q1092 31 1077 17Q1063 3 1045 -5Q1028 -12 1008 -14Q988 -16 967 -16Q927 -16 901 -8Q876 0 861 12Q846 24 838 38Q831 52 827 63L471 1253Q461 1287 449 1310Q438 1334 421 1349Q405 1364 381 1371Q358 1378 324 1378Q296 1378 259 1364Q222 1351 188 1324Q155 1298 132 1258Q109 1219 109 1167Q109 1135 117 1116Q126 1097 137 1087Q148 1078 159 1075Q171 1073 176 1073Q201 1073 217 1081Q233 1090 246 1099Q259 1109 270 1117Q282 1126 297 1126Q309 1126 322 1120Q336 1115 347 1103Q359 1091 367 1071Q375 1052 375 1024Q375 984 359 955Q344 926 319 906Q295 887 263 877Q232 868 201 868Q153 868 115 885Q78 902 52 931Q27 960 13 998Q0 1037 0 1081Q0 1185 40 1262Q80 1340 146 1392Q212 1444 296 1469Q380 1495 469 1495Q569 1495 633 1464Q697 1434 736 1386Q776 1338 799 1278Q822 1219 840 1161ZM2591 1391L2591 848Q2628 901 2675 943Q2694 961 2717 978Q2741 995 2767 1008Q2794 1022 2823 1030Q2853 1038 2884 1038Q2951 1038 3004 1012Q3057 986 3093 925Q3129 864 3148 763Q3167 663 3167 514Q3167 369 3141 262Q3115 155 3073 80Q3031 5 2978 -43Q2925 -90 2871 -117Q2817 -144 2767 -155Q2717 -165 2681 -166L2671 -125Q2716 -114 2751 -84Q2786 -54 2810 14Q2834 83 2846 199Q2859 315 2859 498Q2859 624 2847 699Q2836 775 2817 814Q2799 854 2775 866Q2752 879 2728 879Q2699 879 2677 863Q2655 848 2638 828Q2622 808 2610 788Q2599 768 2591 758L2591 90Q2591 77 2587 58Q2583 40 2567 23Q2552 7 2521 -5Q2491 -16 2438 -16Q2385 -16 2354 -4Q2323 9 2307 26Q2292 43 2288 61Q2284 79 2284 90L2284 1380Q2284 1409 2270 1430Q2257 1452 2225 1452Q2208 1452 2195 1446Q2183 1441 2169 1430L2149 1454Q2172 1473 2200 1491Q2228 1510 2261 1524Q2295 1538 2333 1547Q2371 1556 2413 1556Q2478 1556 2514 1538Q2550 1521 2567 1495Q2584 1470 2587 1441Q2591 1413 2591 1391ZM3693 872L3693 90Q3693 77 3688 58Q3684 40 3667 23Q3651 7 3620 -5Q3589 -16 3536 -16Q3483 -16 3453 -4Q3423 9 3408 26Q3393 43 3389 61Q3386 79 3386 90L3386 862Q3386 891 3372 912Q3359 934 3327 934Q3310 934 3298 928Q3286 922 3272 911L3251 936Q3274 955 3302 973Q3331 992 3364 1006Q3397 1020 3435 1029Q3473 1038 3515 1038Q3580 1038 3616 1020Q3652 1003 3669 977Q3686 952 3689 923Q3693 894 3693 872ZM3355 1266Q3355 1294 3367 1319Q3380 1345 3402 1364Q3425 1383 3454 1394Q3484 1405 3519 1405Q3553 1405 3582 1394Q3612 1383 3634 1364Q3656 1345 3668 1319Q3681 1294 3681 1266Q3681 1237 3668 1212Q3656 1187 3634 1168Q3612 1150 3582 1139Q3553 1128 3519 1128Q3484 1128 3454 1139Q3425 1150 3402 1168Q3380 1187 3367 1212Q3355 1237 3355 1266ZM4424 952L4269 952L4269 213Q4269 160 4289 139Q4309 119 4344 119Q4371 119 4392 134Q4413 149 4428 168Q4446 189 4459 217L4490 203Q4475 171 4454 133Q4434 95 4400 62Q4366 30 4314 8Q4263 -14 4185 -14Q4141 -14 4100 -1Q4060 12 4028 40Q3997 68 3978 110Q3959 152 3959 211L3959 952L3847 952L3847 1024Q3875 1024 3925 1038Q3975 1053 4027 1087Q4080 1121 4125 1178Q4170 1235 4189 1319L4269 1319L4269 1024L4432 1024Q4512 1024 4512 1051Q4512 1061 4502 1064Q4492 1068 4479 1073Q4467 1079 4457 1089Q4447 1099 4447 1122Q4447 1150 4464 1166Q4482 1182 4510 1182Q4528 1182 4541 1174Q4555 1167 4564 1154Q4573 1142 4577 1126Q4582 1110 4582 1094Q4582 1029 4544 990Q4507 952 4424 952ZM5288 692L4893 459Q4893 427 4902 389Q4912 352 4930 314Q4948 276 4974 241Q5001 207 5035 180Q5070 153 5112 137Q5154 121 5204 121Q5239 121 5269 129Q5299 137 5325 151Q5351 165 5375 183Q5399 202 5423 223L5448 199Q5425 168 5389 131Q5353 94 5302 61Q5251 29 5183 7Q5115 -14 5028 -14Q4941 -14 4858 17Q4776 49 4712 112Q4648 175 4609 269Q4571 363 4571 489Q4571 580 4594 656Q4617 732 4656 793Q4696 854 4748 900Q4801 946 4859 976Q4917 1007 4977 1022Q5038 1038 5094 1038Q5168 1038 5223 1022Q5278 1006 5314 979Q5351 952 5369 916Q5387 881 5387 842Q5387 795 5360 757Q5333 720 5288 692ZM4883 541L5094 662Q5107 670 5115 677Q5124 685 5129 695Q5134 706 5136 721Q5139 737 5139 760Q5139 785 5133 815Q5128 846 5115 873Q5102 900 5082 918Q5062 936 5034 936Q4998 936 4972 914Q4947 893 4930 859Q4914 825 4904 781Q4895 738 4890 694Q4885 650 4884 609Q4883 569 4883 541ZM5894 -145Q5934 -145 5973 -131Q6012 -116 6042 -83Q6073 -49 6092 5Q6111 59 6111 137Q6111 221 6069 300Q6028 379 5965 455Q5903 532 5830 607Q5758 683 5695 761Q5633 840 5591 923Q5550 1007 5550 1098Q5550 1189 5583 1262Q5617 1336 5674 1387Q5732 1439 5808 1467Q5885 1495 5972 1495Q6065 1495 6137 1475Q6210 1456 6260 1422Q6311 1389 6337 1343Q6363 1298 6363 1247Q6363 1223 6356 1197Q6349 1172 6334 1151Q6319 1130 6296 1116Q6273 1102 6242 1102Q6205 1102 6187 1124Q6170 1147 6161 1180Q6153 1213 6147 1252Q6141 1292 6128 1325Q6115 1358 6089 1380Q6063 1403 6013 1403Q5986 1403 5959 1391Q5933 1379 5911 1354Q5890 1330 5877 1292Q5864 1254 5864 1202Q5864 1142 5889 1085Q5914 1028 5955 972Q5996 917 6048 861Q6101 806 6155 749Q6210 693 6262 633Q6315 574 6356 510Q6397 446 6422 376Q6447 306 6447 229Q6447 116 6403 27Q6360 -61 6285 -122Q6211 -182 6111 -214Q6011 -246 5898 -246Q5796 -246 5717 -221Q5639 -195 5585 -153Q5531 -111 5503 -58Q5476 -4 5476 53Q5476 77 5483 104Q5491 132 5505 155Q5520 178 5542 193Q5564 209 5593 209Q5623 209 5641 194Q5660 179 5671 154Q5682 129 5689 97Q5696 65 5704 32Q5712 -1 5724 -33Q5736 -65 5757 -90Q5778 -115 5811 -130Q5844 -145 5894 -145ZM7115 952L6960 952L6960 213Q6960 160 6980 139Q7000 119 7035 119Q7062 119 7083 134Q7104 149 7119 168Q7137 189 7150 217L7181 203Q7166 171 7145 133Q7125 95 7091 62Q7057 30 7005 8Q6954 -14 6876 -14Q6832 -14 6791 -1Q6751 12 6719 40Q6688 68 6669 110Q6650 152 6650 211L6650 952L6538 952L6538 1024Q6566 1024 6616 1038Q6666 1053 6718 1087Q6771 1121 6816 1178Q6861 1235 6880 1319L6960 1319L6960 1024L7123 1024Q7203 1024 7203 1051Q7203 1061 7193 1064Q7183 1068 7170 1073Q7158 1079 7148 1089Q7138 1099 7138 1122Q7138 1150 7155 1166Q7173 1182 7201 1182Q7219 1182 7232 1174Q7246 1167 7255 1154Q7264 1142 7268 1126Q7273 1110 7273 1094Q7273 1029 7235 990Q7198 952 7115 952ZM7262 512Q7262 643 7300 741Q7338 840 7401 906Q7465 972 7549 1005Q7633 1038 7725 1038Q7817 1038 7901 1007Q7985 977 8048 914Q8112 851 8150 754Q8188 658 8188 526Q8188 395 8150 294Q8112 193 8048 124Q7985 55 7901 19Q7817 -16 7725 -16Q7633 -16 7549 17Q7465 51 7401 117Q7338 183 7300 282Q7262 381 7262 512ZM7877 522Q7877 602 7871 676Q7866 751 7850 809Q7834 867 7804 901Q7774 936 7725 936Q7676 936 7646 899Q7616 863 7600 803Q7584 744 7579 668Q7574 592 7574 512Q7574 432 7579 355Q7584 279 7600 219Q7616 159 7646 122Q7676 86 7725 86Q7774 86 7804 124Q7834 162 7850 224Q7866 286 7871 364Q7877 442 7877 522ZM8694 827Q8732 885 8775 932Q8793 952 8814 971Q8835 990 8857 1005Q8880 1020 8904 1029Q8928 1038 8952 1038Q9003 1038 9032 1007Q9061 977 9061 922Q9061 888 9055 856Q9050 825 9034 780L9006 780Q9000 811 8978 831Q8956 852 8914 852Q8883 852 8853 840Q8823 829 8794 812Q8766 795 8740 775Q8715 755 8694 737L8694 88Q8694 75 8690 57Q8686 39 8670 23Q8655 7 8624 -5Q8594 -16 8541 -16Q8488 -16 8457 -4Q8427 9 8411 26Q8395 43 8391 61Q8387 79 8387 90L8387 862Q8387 891 8373 912Q8360 934 8328 934Q8311 934 8299 928Q8287 922 8273 911L8252 936Q8275 955 8303 973Q8332 992 8365 1006Q8398 1020 8436 1029Q8474 1038 8516 1038Q8559 1038 8589 1026Q8620 1015 8639 996Q8659 978 8670 955Q8681 932 8686 908Q8692 885 8693 863Q8694 842 8694 827ZM9841 692L9446 459Q9446 427 9455 389Q9465 352 9483 314Q9501 276 9527 241Q9554 207 9588 180Q9623 153 9665 137Q9707 121 9757 121Q9792 121 9822 129Q9852 137 9878 151Q9904 165 9928 183Q9952 202 9976 223L10001 199Q9978 168 9942 131Q9906 94 9855 61Q9804 29 9736 7Q9668 -14 9581 -14Q9494 -14 9411 17Q9329 49 9265 112Q9201 175 9162 269Q9124 363 9124 489Q9124 580 9147 656Q9170 732 9209 793Q9249 854 9301 900Q9354 946 9412 976Q9470 1007 9530 1022Q9591 1038 9647 1038Q9721 1038 9776 1022Q9831 1006 9867 979Q9904 952 9922 916Q9940 881 9940 842Q9940 795 9913 757Q9886 720 9841 692ZM9436 541L9647 662Q9660 670 9668 677Q9677 685 9682 695Q9687 706 9689 721Q9692 737 9692 760Q9692 785 9686 815Q9681 846 9668 873Q9655 900 9635 918Q9615 936 9587 936Q9551 936 9525 914Q9500 893 9483 859Q9467 825 9457 781Q9448 738 9443 694Q9438 650 9437 609Q9436 569 9436 541Z" fill="#8a0059" style=""></path></g></g></g></svg>