<svg version="1.1" xmlns="http://www.w3.org/2000/svg" viewBox="0 0 250 250"><desc>Created with Snap</desc><defs></defs><g transform="matrix(0.0351,0,0,0.0351,97.9456,135.6161)"><rect x="-2790.8999999999996" y="-1716.7" width="7123.599999999999" height="2828.4" fill="#603f83" style=""></rect><g transform="matrix(69.1875,0,0,69.1875,-2483.7,-1409.5)"><g display="none"><rect x="-69.333" y="-18.667" display="inline" fill="#c7d3d4" width="473.333" height="236" style=""></rect></g><g display="none"><g display="inline"><g><polygon fill="#c7d3d4" points="32,15.976 15.976,32 0,16.024    " style=""></polygon></g><g><polygon points="23.347,15.989 15.989,23.347 8.653,16.011    " fill="#c7d3d4" style=""></polygon></g><g><polygon fill="#c7d3d4" points="0,16.024 16.024,0 32,15.976    " style=""></polygon></g><g><polygon fill="#c7d3d4" points="8.653,16.011 16.011,8.653 23.347,15.989    " style=""></polygon></g></g></g><g display="none"><g display="inline"><path fill="#c7d3d4" d="M16,1c8.271,0,15,6.729,15,15s-6.729,15-15,15S1,24.271,1,16S7.729,1,16,1 M16,0C7.163,0,0,7.163,0,16    s7.163,16,16,16s16-7.163,16-16S24.837,0,16,0L16,0z" style=""></path></g><g display="inline"><path fill="#c7d3d4" d="M13.034,6.153l2.259,2.259L16,9.119l0.707-0.707l2.259-2.259l0.744,0.744l-2.259,2.259l-0.707,0.707    l0.707,0.707l2.259,2.259l-0.744,0.744l-2.259-2.259L16,10.607l-0.707,0.707l-2.259,2.259l-0.744-0.744l2.259-2.259l0.707-0.707    l-0.707-0.707L12.29,6.897L13.034,6.153 M18.966,4.738L16,7.705l-2.966-2.966l-2.158,2.158l2.966,2.966l-2.966,2.966l2.158,2.158    L16,12.021l2.966,2.966l2.158-2.158l-2.966-2.966l2.966-2.966L18.966,4.738L18.966,4.738z" style=""></path></g><g display="inline"><path fill="#c7d3d4" d="M13.034,18.427l2.259,2.259L16,21.393l0.707-0.707l2.259-2.259l0.744,0.744l-2.259,2.259l-0.707,0.707    l0.707,0.707l2.259,2.259l-0.744,0.744l-2.259-2.259L16,22.881l-0.707,0.707l-2.259,2.259l-0.744-0.744l2.259-2.259l0.707-0.707    l-0.707-0.707l-2.259-2.259L13.034,18.427 M18.966,17.013L16,19.979l-2.966-2.966l-2.158,2.158l2.966,2.966l-2.966,2.966    l2.158,2.158L16,24.295l2.966,2.966l2.158-2.158l-2.966-2.966l2.966-2.966L18.966,17.013L18.966,17.013z" style=""></path></g></g><g display="none"><g display="inline"><rect x="2" y="2" fill="#c7d3d4" width="28" height="28" style=""></rect></g><g display="inline"><g><path fill="#c7d3d4" d="M16,31.5C7.453,31.5,0.5,24.547,0.5,16S7.453,0.5,16,0.5S31.5,7.453,31.5,16S24.547,31.5,16,31.5z" style=""></path></g><g><g><path d="M16,1c8.271,0,15,6.729,15,15s-6.729,15-15,15S1,24.271,1,16S7.729,1,16,1 M16,0C7.163,0,0,7.163,0,16s7.163,16,16,16      s16-7.163,16-16S24.837,0,16,0L16,0z" fill="#c7d3d4" style=""></path></g></g></g><g display="inline"><g><polygon fill="#c7d3d4" points="16,11.314 13.034,14.28 11.582,12.829 14.549,9.863 11.582,6.896 13.034,5.445 16,8.412      18.966,5.445 20.418,6.896 17.451,9.863 20.418,12.829 18.966,14.28    " style=""></polygon></g><g><path d="M13.034,6.153l2.259,2.259L16,9.119l0.707-0.707l2.259-2.259l0.744,0.744l-2.259,2.259l-0.707,0.707l0.707,0.707     l2.259,2.259l-0.744,0.744l-2.259-2.259L16,10.607l-0.707,0.707l-2.259,2.259l-0.744-0.744l2.259-2.259l0.707-0.707l-0.707-0.707     L12.29,6.897L13.034,6.153 M18.966,4.738L16,7.705l-2.966-2.966l-2.158,2.158l2.966,2.966l-2.966,2.966l2.158,2.158L16,12.021     l2.966,2.966l2.158-2.158l-2.966-2.966l2.966-2.966L18.966,4.738L18.966,4.738z" fill="#c7d3d4" style=""></path></g></g><g display="inline"><g><polygon fill="#c7d3d4" points="16,23.589 13.034,26.555 11.582,25.104 14.549,22.137 11.582,19.171 13.034,17.72 16,20.686      18.966,17.72 20.418,19.171 17.451,22.137 20.418,25.104 18.966,26.555    " style=""></polygon></g><g><path d="M13.034,18.427l2.259,2.259L16,21.393l0.707-0.707l2.259-2.259l0.744,0.744l-2.259,2.259l-0.707,0.707l0.707,0.707     l2.259,2.259l-0.744,0.744l-2.259-2.259L16,22.881l-0.707,0.707l-2.259,2.259l-0.744-0.744l2.259-2.259l0.707-0.707l-0.707-0.707     l-2.259-2.259L13.034,18.427 M18.966,17.013L16,19.979l-2.966-2.966l-2.158,2.158l2.966,2.966l-2.966,2.966l2.158,2.158     L16,24.295l2.966,2.966l2.158-2.158l-2.966-2.966l2.966-2.966L18.966,17.013L18.966,17.013z" fill="#c7d3d4" style=""></path></g></g></g><g><g><path d="M0,16.024L15.976,32L32,15.976L16.024,0L0,16.024z M15.989,23.347l-7.336-7.336l14.694-0.022L15.989,23.347z" fill="#c7d3d4" style=""></path></g></g><desc>Created with Snap</desc><defs></defs></g><g><g transform="matrix(0.5,0,0,-0.5,0,0)"><path d="M492 1373L511 1358Q442 1274 386 1176Q331 1079 291 967Q251 856 230 729Q209 603 209 459Q209 391 214 316Q219 242 231 170Q244 99 265 34Q287 -30 321 -79Q355 -128 403 -157Q451 -185 516 -185Q576 -185 622 -146Q669 -106 704 -42Q672 24 648 96Q625 168 609 240Q594 313 586 384Q579 455 579 518Q579 547 580 591Q582 635 588 683Q594 732 605 781Q617 830 637 868Q657 907 686 931Q716 956 759 956Q798 956 826 932Q855 908 875 870Q895 833 908 785Q921 738 928 691Q936 645 938 604Q941 563 941 537Q941 480 933 413Q926 346 910 274Q895 203 872 130Q849 58 818 -9Q848 -56 883 -96Q918 -135 959 -164Q1001 -192 1048 -208Q1095 -223 1148 -223Q1229 -223 1292 -193Q1355 -162 1401 -110Q1447 -58 1478 12Q1510 82 1529 161Q1548 240 1556 324Q1564 408 1564 489Q1564 605 1542 720Q1521 836 1479 944Q1438 1053 1376 1151Q1315 1249 1234 1330Q1153 1411 1053 1471Q954 1531 837 1565L857 1589Q995 1558 1110 1492Q1225 1426 1317 1334Q1410 1242 1479 1129Q1549 1016 1595 891Q1642 766 1665 633Q1689 500 1689 369Q1689 288 1676 201Q1664 115 1637 32Q1610 -50 1567 -124Q1525 -197 1465 -253Q1405 -308 1325 -341Q1246 -373 1146 -373Q1081 -373 1024 -355Q967 -337 918 -305Q869 -272 827 -227Q786 -182 752 -128Q723 -171 690 -207Q657 -243 619 -269Q581 -294 538 -308Q496 -322 449 -322Q371 -322 312 -289Q254 -255 212 -201Q171 -146 144 -78Q118 -9 102 61Q87 131 81 196Q75 262 75 310Q75 623 180 890Q286 1158 492 1373ZM654 610Q654 553 660 489Q667 425 680 358Q694 291 714 224Q734 158 762 96Q779 149 791 205Q803 261 811 314Q819 368 822 416Q826 464 826 502Q826 560 820 621Q815 682 803 732Q791 782 771 814Q752 846 724 846Q708 846 696 831Q685 816 677 793Q670 771 665 743Q660 715 657 688Q655 662 654 641Q654 620 654 610ZM2671 151L2679 147Q2662 111 2637 75Q2613 40 2583 11Q2553 -17 2517 -35Q2481 -53 2440 -53Q2395 -53 2362 -30Q2329 -6 2306 32Q2283 71 2268 121Q2253 171 2243 224Q2233 277 2226 330Q2220 383 2214 427Q2182 385 2156 338Q2130 291 2106 240Q2082 190 2059 138Q2036 86 2010 35Q2004 24 1998 11Q1992 -1 1984 -12Q1976 -22 1965 -29Q1954 -36 1939 -36Q1925 -36 1915 -31Q1906 -26 1899 -19Q1893 -11 1889 -2Q1886 7 1884 15Q1872 58 1862 123Q1853 188 1846 262Q1839 336 1835 412Q1832 489 1832 554Q1832 647 1844 745Q1856 844 1881 938Q1907 1032 1946 1115Q1986 1199 2040 1262Q2094 1325 2163 1362Q2233 1399 2319 1399Q2376 1399 2409 1365Q2442 1332 2442 1270Q2442 1177 2409 1091Q2377 1006 2326 928Q2276 850 2214 780Q2153 711 2096 652L2083 662Q2108 690 2136 731Q2165 773 2192 821Q2220 870 2245 923Q2270 977 2289 1029Q2308 1081 2319 1129Q2330 1178 2330 1218Q2330 1239 2326 1258Q2322 1277 2312 1291Q2302 1306 2286 1314Q2271 1323 2249 1323Q2205 1323 2166 1289Q2128 1255 2096 1197Q2064 1140 2039 1064Q2015 988 1997 905Q1980 822 1971 737Q1962 652 1962 575Q1962 523 1962 470Q1962 417 1964 359Q1967 301 1973 236Q1980 171 1992 95Q2036 209 2085 318Q2134 428 2191 519Q2199 532 2207 545Q2216 558 2226 568Q2236 579 2248 586Q2260 593 2274 593Q2291 593 2301 583Q2311 574 2317 560Q2323 546 2325 530Q2328 514 2330 501Q2334 472 2339 426Q2344 380 2351 327Q2358 275 2368 222Q2379 169 2395 126Q2412 84 2435 57Q2458 30 2490 30Q2516 30 2542 41Q2568 52 2592 69Q2616 86 2636 108Q2657 130 2671 151ZM2873 807Q2873 787 2864 767Q2855 747 2840 731Q2826 716 2807 706Q2788 696 2768 696Q2742 696 2726 713Q2711 730 2711 756Q2711 776 2720 795Q2729 815 2743 830Q2758 845 2776 854Q2795 864 2815 864Q2841 864 2857 848Q2873 832 2873 807ZM3147 147L3153 143Q3130 105 3098 73Q3067 42 3029 18Q2992 -5 2949 -18Q2907 -31 2862 -31Q2806 -31 2762 -12Q2719 7 2689 40Q2660 74 2644 119Q2629 165 2629 219Q2629 277 2646 329Q2663 381 2693 426Q2723 472 2763 510Q2804 548 2850 578L2862 569Q2813 511 2782 439Q2752 367 2752 289Q2752 244 2762 202Q2773 161 2795 129Q2818 97 2853 78Q2888 59 2938 59Q2997 59 3050 84Q3104 109 3147 147ZM3759 147L3765 143Q3743 106 3713 74Q3684 42 3648 18Q3613 -6 3572 -20Q3531 -33 3487 -33Q3422 -33 3372 -11Q3323 11 3287 48Q3251 86 3227 136Q3203 186 3189 240Q3175 295 3169 352Q3163 409 3163 461Q3163 509 3167 559Q3171 610 3179 663Q3148 662 3118 662Q3089 662 3060 662Q3041 662 3017 663Q2993 664 2972 671Q2951 678 2937 692Q2923 706 2923 733Q2923 748 2928 757Q2934 766 2943 770Q2953 775 2965 776Q2978 778 2991 778Q3006 778 3062 773Q3118 768 3197 762Q3222 880 3261 994Q3301 1108 3351 1202L3365 1202Q3333 1093 3308 982Q3284 871 3272 757Q3345 752 3422 748Q3500 745 3574 745Q3683 745 3751 747Q3819 749 3858 752Q3904 756 3927 760L3931 743Q3871 729 3794 716Q3717 704 3630 694Q3543 685 3450 678Q3357 671 3265 667Q3263 647 3263 626Q3263 606 3263 586Q3263 538 3267 480Q3272 422 3284 363Q3296 305 3316 249Q3337 194 3370 151Q3404 109 3451 83Q3498 57 3562 57Q3621 57 3668 83Q3716 109 3759 147ZM4341 147L4349 143Q4323 105 4286 72Q4250 39 4206 15Q4163 -9 4115 -23Q4068 -37 4020 -37Q3952 -37 3893 -20Q3834 -2 3790 34Q3746 70 3721 124Q3696 179 3696 252Q3696 324 3722 386Q3749 449 3795 495Q3842 542 3905 569Q3968 596 4040 596Q4074 596 4103 586Q4133 577 4155 558Q4177 540 4189 513Q4202 486 4202 451Q4202 409 4185 377Q4168 345 4140 321Q4112 297 4076 281Q4041 265 4002 255Q3964 245 3926 240Q3889 236 3858 236L3834 236Q3847 145 3906 97Q3965 49 4069 49Q4143 49 4213 75Q4284 101 4341 147ZM3831 289L3831 266L3856 266Q3892 266 3930 277Q3968 289 3998 311Q4029 334 4049 367Q4069 400 4069 442Q4069 483 4051 510Q4034 537 3991 537Q3947 537 3916 510Q3886 484 3867 445Q3848 407 3839 364Q3831 322 3831 289ZM5403 1098Q5403 1016 5362 945Q5322 874 5257 822Q5193 770 5114 740Q5035 711 4958 713L4942 713L4942 731Q5008 745 5066 779Q5125 814 5168 864Q5212 914 5237 976Q5263 1038 5263 1106Q5263 1151 5252 1191Q5241 1231 5218 1260Q5195 1289 5159 1306Q5124 1323 5075 1323Q5005 1323 4933 1302Q4861 1281 4794 1243Q4727 1205 4668 1153Q4610 1101 4566 1039Q4523 977 4498 907Q4473 837 4473 764Q4473 686 4495 629Q4518 573 4556 530Q4595 488 4646 458Q4697 428 4755 403Q4813 379 4873 358Q4934 337 4992 313Q5050 289 5101 259Q5152 230 5190 189Q5229 149 5251 93Q5274 38 5274 -37Q5274 -119 5240 -183Q5207 -247 5152 -291Q5097 -334 5026 -357Q4955 -379 4880 -379Q4799 -379 4730 -352Q4661 -324 4606 -278Q4551 -231 4510 -171Q4469 -110 4444 -45L4459 -37Q4489 -90 4528 -142Q4567 -193 4616 -234Q4665 -274 4724 -299Q4784 -324 4854 -324Q4911 -324 4960 -308Q5009 -292 5045 -262Q5081 -232 5101 -188Q5122 -144 5122 -88Q5122 -6 5087 47Q5052 100 4995 137Q4938 174 4865 200Q4792 226 4715 252Q4639 279 4566 312Q4493 346 4436 397Q4379 448 4344 523Q4309 599 4309 709Q4309 809 4340 897Q4371 986 4425 1060Q4480 1134 4554 1192Q4628 1251 4713 1292Q4799 1333 4892 1354Q4985 1376 5079 1376Q5146 1376 5205 1360Q5265 1344 5308 1310Q5352 1277 5377 1224Q5403 1171 5403 1098ZM6079 147L6085 143Q6063 106 6033 74Q6004 42 5968 18Q5933 -6 5892 -20Q5851 -33 5807 -33Q5742 -33 5692 -11Q5643 11 5607 48Q5571 86 5547 136Q5523 186 5509 240Q5495 295 5489 352Q5483 409 5483 461Q5483 509 5487 559Q5491 610 5499 663Q5468 662 5438 662Q5409 662 5380 662Q5361 662 5337 663Q5313 664 5292 671Q5271 678 5257 692Q5243 706 5243 733Q5243 748 5248 757Q5254 766 5263 770Q5273 775 5285 776Q5298 778 5311 778Q5326 778 5382 773Q5438 768 5517 762Q5542 880 5581 994Q5621 1108 5671 1202L5685 1202Q5653 1093 5628 982Q5604 871 5592 757Q5665 752 5742 748Q5820 745 5894 745Q6003 745 6071 747Q6139 749 6178 752Q6224 756 6247 760L6251 743Q6191 729 6114 716Q6037 704 5950 694Q5863 685 5770 678Q5677 671 5585 667Q5583 647 5583 626Q5583 606 5583 586Q5583 538 5587 480Q5592 422 5604 363Q5616 305 5636 249Q5657 194 5690 151Q5724 109 5771 83Q5818 57 5882 57Q5941 57 5988 83Q6036 109 6079 147ZM6608 295Q6608 225 6585 165Q6562 105 6520 61Q6478 17 6419 -8Q6361 -33 6290 -33Q6227 -33 6176 -10Q6126 14 6090 54Q6054 94 6035 147Q6016 201 6016 262Q6016 313 6030 359Q6045 405 6071 444Q6097 484 6133 517Q6169 551 6211 578L6223 569Q6181 520 6157 461Q6133 402 6133 336Q6133 288 6147 238Q6162 189 6190 148Q6218 107 6260 81Q6302 55 6356 55Q6390 55 6420 69Q6450 83 6472 107Q6495 131 6508 161Q6522 192 6522 225Q6522 257 6512 287Q6503 318 6486 344Q6469 371 6445 392Q6421 414 6393 428Q6377 436 6362 440Q6348 444 6331 449Q6324 450 6316 452Q6308 455 6301 458Q6294 462 6289 468Q6284 474 6284 483Q6284 501 6297 516Q6310 531 6328 542Q6346 554 6366 560Q6386 567 6401 567Q6452 567 6491 541Q6530 515 6556 475Q6582 435 6595 387Q6608 339 6608 295ZM7454 147L7463 143Q7445 103 7417 71Q7390 39 7358 16Q7326 -6 7292 -19Q7258 -31 7227 -31Q7169 -31 7129 -11Q7089 9 7064 43Q7039 77 7028 123Q7017 169 7017 221Q7017 261 7023 304Q7029 347 7040 387Q7042 393 7044 401Q7046 410 7046 416Q7046 421 7040 424Q7023 430 7004 435Q6985 441 6966 448Q6948 455 6931 464Q6915 473 6903 487Q6902 427 6883 365Q6864 304 6832 247Q6801 191 6759 142Q6717 93 6670 57L6660 67Q6689 99 6713 143Q6737 187 6754 235Q6771 283 6780 332Q6790 381 6790 424Q6790 446 6786 465Q6782 485 6777 503Q6773 521 6769 537Q6765 554 6765 571Q6765 599 6783 615Q6801 631 6829 631Q6844 631 6852 622Q6860 614 6866 602Q6872 590 6880 577Q6888 564 6903 555Q6922 544 6951 539Q6980 534 7012 530Q7044 526 7076 522Q7108 518 7133 508Q7159 499 7175 482Q7191 466 7191 438Q7191 424 7188 410Q7186 397 7181 385Q7169 343 7160 299Q7152 256 7152 213Q7152 176 7157 145Q7163 115 7178 93Q7193 71 7218 59Q7243 47 7282 47Q7338 47 7380 74Q7422 102 7454 147ZM8043 147L8051 143Q8025 105 7988 72Q7952 39 7908 15Q7865 -9 7817 -23Q7770 -37 7722 -37Q7654 -37 7595 -20Q7536 -2 7492 34Q7448 70 7423 124Q7398 179 7398 252Q7398 324 7424 386Q7451 449 7497 495Q7544 542 7607 569Q7670 596 7742 596Q7776 596 7805 586Q7835 577 7857 558Q7879 540 7891 513Q7904 486 7904 451Q7904 409 7887 377Q7870 345 7842 321Q7814 297 7778 281Q7743 265 7704 255Q7666 245 7628 240Q7591 236 7560 236L7536 236Q7549 145 7608 97Q7667 49 7771 49Q7845 49 7915 75Q7986 101 8043 147ZM7533 289L7533 266L7558 266Q7594 266 7632 277Q7670 289 7700 311Q7731 334 7751 367Q7771 400 7771 442Q7771 483 7753 510Q7736 537 7693 537Q7649 537 7618 510Q7588 484 7569 445Q7550 407 7541 364Q7533 322 7533 289Z" fill="#ffffff" style=""></path></g></g></g></svg>